<svg width="18" height="19" viewBox="0 0 18 19" fill="none" xmlns="http://www.w3.org/2000/svg">
<path d="M5 11.4907C4.79333 11.4907 4.61333 11.4141 4.46 11.2607C4.30667 11.1074 4.23 10.9274 4.23 10.7207C4.23 10.5141 4.30667 10.3344 4.46 10.1817C4.61333 10.0291 4.79333 9.9524 5 9.95173C5.20667 9.95107 5.38667 10.0277 5.54 10.1817C5.69333 10.3357 5.77 10.5157 5.77 10.7217C5.77 10.9277 5.69333 11.1074 5.54 11.2607C5.38667 11.4141 5.20667 11.4907 5 11.4907ZM9 11.4907C8.79333 11.4907 8.61333 11.4141 8.46 11.2607C8.30667 11.1074 8.23 10.9274 8.23 10.7207C8.23 10.5141 8.30667 10.3344 8.46 10.1817C8.61333 10.0291 8.79333 9.9524 9 9.95173C9.20667 9.95107 9.38667 10.0277 9.54 10.1817C9.69333 10.3357 9.77 10.5157 9.77 10.7217C9.77 10.9277 9.69333 11.1074 9.54 11.2607C9.38667 11.4141 9.20667 11.4907 9 11.4907ZM13 11.4907C12.7933 11.4907 12.6133 11.4141 12.46 11.2607C12.3067 11.1074 12.23 10.9274 12.23 10.7207C12.23 10.5141 12.3067 10.3344 12.46 10.1817C12.6133 10.0291 12.7933 9.9524 13 9.95173C13.2067 9.95107 13.3867 10.0277 13.54 10.1817C13.6933 10.3357 13.77 10.5157 13.77 10.7217C13.77 10.9277 13.6933 11.1074 13.54 11.2607C13.3867 11.4141 13.2067 11.4907 13 11.4907ZM2.616 18.6057C2.15533 18.6057 1.771 18.4517 1.463 18.1437C1.155 17.8357 1.00067 17.4514 1 16.9907V4.22073C1 3.76073 1.15433 3.37673 1.463 3.06873C1.77167 2.76073 2.156 2.6064 2.616 2.60573H4.385V0.375732H5.462V2.60573H12.616V0.375732H13.616V2.60573H15.385C15.845 2.60573 16.2293 2.76007 16.538 3.06873C16.8467 3.3774 17.0007 3.76173 17 4.22173V16.9907C17 17.4507 16.846 17.8351 16.538 18.1437C16.23 18.4524 15.8453 18.6064 15.384 18.6057H2.616ZM2.616 17.6057H15.385C15.5383 17.6057 15.6793 17.5417 15.808 17.4137C15.9367 17.2857 16.0007 17.1444 16 16.9897V8.22173H2V16.9907C2 17.1441 2.064 17.2851 2.192 17.4137C2.32 17.5424 2.461 17.6064 2.615 17.6057M2 7.22073H16V4.22073C16 4.0674 15.936 3.9264 15.808 3.79773C15.68 3.66907 15.5387 3.60507 15.384 3.60573H2.616C2.462 3.60573 2.32067 3.66973 2.192 3.79773C2.06333 3.92573 1.99933 4.06707 2 4.22173V7.22073Z" fill="#585858"/>
<path d="M2.616 17.6057H15.385C15.5383 17.6057 15.6793 17.5417 15.808 17.4137C15.9367 17.2857 16.0007 17.1444 16 16.9897V8.22173H2V16.9907C2 17.1441 2.064 17.2851 2.192 17.4137C2.32 17.5424 2.461 17.6064 2.615 17.6057M2 7.22073H16V4.22073C16 4.0674 15.936 3.9264 15.808 3.79773C15.68 3.66907 15.5387 3.60507 15.384 3.60573H2.616C2.462 3.60573 2.32067 3.66973 2.192 3.79773C2.06333 3.92573 1.99933 4.06707 2 4.22173V7.22073ZM2 7.22073V3.60573M5 11.4907C4.79333 11.4907 4.61333 11.4141 4.46 11.2607C4.30667 11.1074 4.23 10.9274 4.23 10.7207C4.23 10.5141 4.30667 10.3344 4.46 10.1817C4.61333 10.0291 4.79333 9.9524 5 9.95173C5.20667 9.95107 5.38667 10.0277 5.54 10.1817C5.69333 10.3357 5.77 10.5157 5.77 10.7217C5.77 10.9277 5.69333 11.1074 5.54 11.2607C5.38667 11.4141 5.20667 11.4907 5 11.4907ZM9 11.4907C8.79333 11.4907 8.61333 11.4141 8.46 11.2607C8.30667 11.1074 8.23 10.9274 8.23 10.7207C8.23 10.5141 8.30667 10.3344 8.46 10.1817C8.61333 10.0291 8.79333 9.9524 9 9.95173C9.20667 9.95107 9.38667 10.0277 9.54 10.1817C9.69333 10.3357 9.77 10.5157 9.77 10.7217C9.77 10.9277 9.69333 11.1074 9.54 11.2607C9.38667 11.4141 9.20667 11.4907 9 11.4907ZM13 11.4907C12.7933 11.4907 12.6133 11.4141 12.46 11.2607C12.3067 11.1074 12.23 10.9274 12.23 10.7207C12.23 10.5141 12.3067 10.3344 12.46 10.1817C12.6133 10.0291 12.7933 9.9524 13 9.95173C13.2067 9.95107 13.3867 10.0277 13.54 10.1817C13.6933 10.3357 13.77 10.5157 13.77 10.7217C13.77 10.9277 13.6933 11.1074 13.54 11.2607C13.3867 11.4141 13.2067 11.4907 13 11.4907ZM2.616 18.6057C2.15533 18.6057 1.771 18.4517 1.463 18.1437C1.155 17.8357 1.00067 17.4514 1 16.9907V4.22073C1 3.76073 1.15433 3.37673 1.463 3.06873C1.77167 2.76073 2.156 2.6064 2.616 2.60573H4.385V0.375732H5.462V2.60573H12.616V0.375732H13.616V2.60573H15.385C15.845 2.60573 16.2293 2.76007 16.538 3.06873C16.8467 3.3774 17.0007 3.76173 17 4.22173V16.9907C17 17.4507 16.846 17.8351 16.538 18.1437C16.23 18.4524 15.8453 18.6064 15.384 18.6057H2.616Z" stroke="#585858" stroke-width="0.5"/>
</svg>
