<svg width="152" height="152" viewBox="0 0 152 152" fill="none" xmlns="http://www.w3.org/2000/svg">
<rect x="12" y="12" width="128" height="128" rx="64" fill="#F57E77" fill-opacity="0.1"/>
<rect x="12" y="12" width="128" height="128" rx="64" stroke="#DA1E28" stroke-opacity="0.08" stroke-width="22.8571"/>
<path fill-rule="evenodd" clip-rule="evenodd" d="M76.0023 101.6C90.1408 101.6 101.602 90.1386 101.602 76.0001C101.602 61.8617 90.1408 50.4001 76.0023 50.4001C61.8639 50.4001 50.4023 61.8617 50.4023 76.0001C50.4023 90.1386 61.8639 101.6 76.0023 101.6ZM71.8651 67.3374C70.6154 66.0877 68.5893 66.0877 67.3396 67.3374C66.0899 68.5871 66.0899 70.6132 67.3396 71.8629L71.4769 76.0001L67.3396 80.1374C66.0899 81.3871 66.0899 83.4132 67.3396 84.6629C68.5893 85.9126 70.6154 85.9126 71.8651 84.6629L76.0023 80.5256L80.1396 84.6629C81.3893 85.9126 83.4154 85.9126 84.6651 84.6629C85.9148 83.4132 85.9148 81.3871 84.6651 80.1374L80.5278 76.0001L84.6651 71.8629C85.9148 70.6132 85.9148 68.5871 84.6651 67.3374C83.4154 66.0877 81.3893 66.0877 80.1396 67.3374L76.0023 71.4747L71.8651 67.3374Z" fill="#DA1E28"/>
</svg>
